<?xml version="1.0" encoding="UTF-8" standalone="no"?>
<!-- Created with Inkscape (http://www.inkscape.org/) -->

<svg
   xmlns:dc="http://purl.org/dc/elements/1.1/"
   xmlns:cc="http://creativecommons.org/ns#"
   xmlns:rdf="http://www.w3.org/1999/02/22-rdf-syntax-ns#"
   xmlns:svg="http://www.w3.org/2000/svg"
   xmlns="http://www.w3.org/2000/svg"
   xmlns:sodipodi="http://sodipodi.sourceforge.net/DTD/sodipodi-0.dtd"
   xmlns:inkscape="http://www.inkscape.org/namespaces/inkscape"
   id="svg5015"
   version="1.1"
   inkscape:version="0.91 r13725"
   xml:space="preserve"
   width="4045.6626"
   height="3076.1875"
   viewBox="0 0 4045.6626 3076.1875"
   sodipodi:docname="Mechalodons-Shark Logo V2.svg"><metadata
     id="metadata5021"><rdf:RDF><cc:Work
         rdf:about=""><dc:format>image/svg+xml</dc:format><dc:type
           rdf:resource="http://purl.org/dc/dcmitype/StillImage" /><dc:title></dc:title></cc:Work></rdf:RDF></metadata><defs
     id="defs5019"><clipPath
       clipPathUnits="userSpaceOnUse"
       id="clipPath5029"><path
         d="m 0,2460.951 3236.526,0 L 3236.526,0 0,0 0,2460.951 Z"
         id="path5031"
         inkscape:connector-curvature="0" /></clipPath></defs><sodipodi:namedview
     pagecolor="#a8a4a4"
     bordercolor="#666666"
     borderopacity="1"
     objecttolerance="10"
     gridtolerance="10"
     guidetolerance="10"
     inkscape:pageopacity="0"
     inkscape:pageshadow="2"
     inkscape:window-width="1920"
     inkscape:window-height="1057"
     id="namedview5017"
     showgrid="false"
     inkscape:zoom="0.20802751"
     inkscape:cx="2041.3796"
     inkscape:cy="1775.6696"
     inkscape:window-x="1912"
     inkscape:window-y="-8"
     inkscape:window-maximized="1"
     inkscape:current-layer="layer1" /><g
     inkscape:groupmode="layer"
     id="layer3"
     inkscape:label="Black Silhouette"
     style="display:inline"><g
       id="g5053"
       transform="matrix(1.25,0,0,-1.25,3944.7214,1207.1748)"
       style="fill:#000000;fill-opacity:1"><path
         d="m 0,0 c -152.372,179.008 -406.954,192.998 -482.722,192.998 l -0.091,0 c -229.577,297.868 -531.25,398.69 -649.916,428.216 110.862,199.578 388.893,217.07 391.819,217.228 l 188.981,9.725 -177.172,66.479 c -141.436,53.072 -298.649,64.868 -467.302,35.07 -133.165,-23.533 -273.704,-72.963 -417.709,-146.919 -217.61,-111.759 -374.642,-243.713 -410.833,-275.256 -157.928,-38.057 -237.75,-78.428 -508.679,-254.455 -257.497,-167.301 -543.895,-214.835 -546.755,-215.295 l -75.398,-12.045 53.556,-54.453 c 367.31,-373.49 727.071,-389.922 742.206,-390.437 l 28.744,-0.982 c 39.523,-136.928 157.541,-146.356 217.252,-131.723 209.176,27.011 523.779,232.994 569.161,263.313 123.004,36.463 217.253,20.91 266.646,6.386 -98.671,-190.532 -63.505,-337.015 -61.857,-343.571 l 17.269,-68.406 -65.492,22.364 -20.468,-67.05 -420.545,-22.733 c -542.919,-24.963 -698.86,-296.571 -705.228,-308.12 l -80.858,-146.543 137.722,95.114 c 193.895,133.911 357.058,114.74 358.501,114.57 l 2.441,-0.339 2.466,-0.03 c 241.98,-2.896 289.688,-75.968 294.687,-85.093 l 7.725,-41.862 44.358,17.656 c 1.345,0.539 135.583,52.574 234.624,-28.696 23.855,-19.57 36.506,-41.165 38.699,-66.019 4.72,-53.622 -39.547,-106.009 -39.899,-106.414 l -172.106,-197.888 222.639,138.612 c 147.301,91.703 190.156,209.551 200.184,292.263 5.853,48.339 1.375,90.431 -4.163,119.424 l 19.607,5.41 43.328,-26.302 41.862,52.326 c 135.759,37.53 260.278,93.933 334.931,131.172 -8.586,-24.957 -18.286,-42.789 -18.444,-43.068 l -72.29,-130.129 127.185,77.349 c 159.395,96.938 192.405,237.405 199.027,282.635 156.796,184.056 184.552,393.201 189.454,459.614 184.188,120.605 381.07,72.739 383.003,72.248 L 80.749,-94.86 Z m -1298.576,-664.166 29.907,46.909 c 40.711,63.862 82.996,106.051 117.703,133.323 -39.324,-86.639 -107.718,-149.059 -147.61,-180.232"
         style="fill:#000000;fill-opacity:1;fill-rule:nonzero;stroke:none"
         id="path5055"
         inkscape:connector-curvature="0"
         sodipodi:nodetypes="csccccccscscccccccccccccccscccccccccccccccccccsccccccccc" /></g></g><g
     inkscape:groupmode="layer"
     id="layer5"
     inkscape:label="White Silhouette"
     style="display:inline"><path
       transform="matrix(1.25,0,0,-1.25,3930.3095,1219.4496)"
       d="m 0,0 c -154.039,180.959 -416.479,188.484 -478.736,187.63 -146.434,192.368 -325.206,301.037 -450.385,358.567 -95.394,43.849 -173.707,65.225 -214.502,74.49 108.039,223.856 410.323,242.537 413.468,242.7 l 116.291,5.986 -109.026,40.911 c -138.861,52.102 -293.415,63.65 -459.347,34.336 -131.675,-23.272 -270.772,-72.211 -413.426,-145.477 -222.596,-114.315 -381.155,-249.741 -410.59,-275.643 -158.213,-37.814 -236.459,-77.137 -507.589,-253.297 C -2774.24,101.016 -3063.553,53.12 -3066.443,52.659 l -46.382,-7.44 32.931,-33.489 c 363.123,-369.218 717.037,-385.408 731.924,-385.917 l 39.826,-1.357 2.279,-8.186 c 35.863,-128.736 145.846,-137.134 200.572,-123.392 209.036,26.508 528.346,237.374 565.44,262.265 141.945,42.637 249.577,16.874 294.935,1.121 -106.312,-192.998 -70.569,-341.96 -68.927,-348.461 l 13.747,-54.452 30.187,47.357 c 59.148,92.782 121.822,141.327 161.636,165.048 -41.074,-136.674 -159.201,-226.093 -193.083,-249.45 l -65.486,22.358 -18.989,-62.208 -431.251,-23.31 c -534.54,-24.581 -686.451,-289.064 -692.656,-300.303 l -49.757,-90.189 84.748,58.537 c 199.354,137.685 367.571,117.333 369.183,117.108 l 3.017,-0.224 c 263.204,-3.156 306.193,-89.086 308.907,-95.223 l 5.968,-25.545 26.109,10.391 c 1.43,0.576 143.956,55.822 249.838,-31.059 27.211,-22.321 41.668,-47.369 44.188,-76.562 5.199,-60.154 -43.116,-116.993 -43.57,-117.52 l -105.912,-121.781 137.007,85.299 c 142.211,88.541 183.528,201.802 193.149,281.236 6.671,55.046 -0.533,101.416 -6.859,128.415 l 39.62,10.93 37.542,-22.781 36.627,45.769 c 157.31,42.892 300.055,111.844 367.456,146.98 -8.986,-42.94 -28.726,-79.082 -28.981,-79.543 l -44.485,-80.07 78.264,47.594 c 160.237,97.453 187.957,239.429 192.532,276.195 163.266,189.411 186.055,406.724 189.217,461.588 191.968,129.851 399.339,78.968 401.405,78.441 L 49.69,-58.372 Z m -2324.242,-331.556 c 1.32,-0.097 2.623,-0.176 3.92,-0.261 l 0.278,-1.005 z"
       style="fill:#ffffff;fill-opacity:1;fill-rule:nonzero;stroke:none"
       id="path5091"
       inkscape:connector-curvature="0"
       sodipodi:nodetypes="ccccccccccscccccccccccccccccccccccccccccscccccccccccccccccc" /></g><g
     inkscape:groupmode="layer"
     id="layer7"
     inkscape:label="Black Features"
     style="display:inline"><path
       style="fill:#000000;fill-opacity:1;fill-rule:nonzero;stroke:none"
       d="M 2674.7754,49.171875 C 2040.9721,46.779814 1436.9199,592.78516 1436.9199,592.78516 c -200.705,47.33625 -297.2721,96.56625 -632.41209,314.3125 -335.14,217.74624 -702.46875,276.44144 -702.46875,276.44144 450.64125,458.2137 894.34375,473.3632 894.34375,473.3632 -79.52375,-23.9787 -114.87304,-84.5683 -114.87304,-84.5683 114.87125,45.4425 237.31053,30.2949 237.31053,30.2949 -56.8037,-8.8387 -94.6719,-73.2168 -94.6719,-73.2168 88.3638,47.965 239.8379,18.9356 239.8379,18.9356 -102.2462,-3.7875 -119.916,-87.0997 -119.916,-87.0997 176.72,68.1638 334.5039,-5.9902 334.5039,-5.9902 -142.6362,-4.7337 -103.5019,-88.6816 -103.5019,-88.6816 95.9287,50.4937 254.9785,0 254.9785,0 -87.0988,1.265 -113.6055,-54.2813 -113.6055,-54.2813 273.92,-147.6887 542.7891,37.8692 542.7891,37.8692 -194.3963,-16.405 -287.8047,39.1328 -287.8047,39.1328 112.3412,-7.5738 82.0469,50.4941 82.0469,50.4941 -98.4588,35.3388 -204.4903,7.5742 -204.4903,7.5742 13.89,30.295 100.9883,69.4219 100.9883,69.4219 -59.3337,20.1988 -177.9844,-31.5527 -177.9844,-31.5527 20.1925,46.7 64.377,88.3554 64.377,88.3554 -95.9363,6.3163 -167.8887,-45.4433 -167.8887,-45.4433 6.3088,61.855 55.5391,109.8203 55.5391,109.8203 -92.1438,7.5737 -172.9317,-60.5898 -172.9317,-60.5898 18.9338,66.9062 74.4727,132.541 74.4727,132.541 -102.2463,3.7862 -180.5059,-88.3555 -180.5059,-88.3555 1.2638,73.2087 39.1328,132.541 39.1328,132.541 -92.15,26.5088 -207.0214,-63.1211 -207.0214,-63.1211 49.23,176.7275 215.8535,132.541 215.8535,132.541 267.6125,-32.8175 699.3164,-325.6718 699.3164,-325.6718 254.98,-78.26 425.3906,11.3613 425.3906,11.3613 -149.5825,248.0412 -100.3535,443.0664 -100.3535,443.0664 129.0712,-202.4625 270.7637,-244.2559 270.7637,-244.2559 -37.8688,251.8288 -280.2305,399.5176 -280.2305,399.5176 l -66.3086,-22.6387 -20.791,68.0821 -560.459,30.2949 c -658.9187,30.295 -840.68945,359.7559 -840.68945,359.7559 263.18875,-181.7713 482.82815,-151.4766 482.82815,-151.4766 373.7362,4.4837 414.664,140.1152 414.664,140.1152 0,0 195.0261,-77.6324 342.7149,43.5489 147.6887,121.18 4.4219,285.9101 4.4219,285.9101 324.4075,-201.9625 211.4296,-507.4433 211.4296,-507.4433 l 91.5215,-25.2442 35.3399,21.457 35.3476,-44.1777 c 270.1338,-71.9512 512.4942,-210.8008 512.4942,-210.8008 1.8937,82.6763 -45.4414,167.8809 -45.4414,167.8809 215.8525,-131.2763 227.2129,-331.9824 227.2129,-331.9824 232.2575,-263.8175 236.0429,-580.6582 236.0429,-580.6582 258.4563,-183.6638 539.0039,-111.0782 539.0039,-111.0782 -207.65,-243.94367 -590.125,-223.4257 -590.125,-223.4257 C 2966.8238,544.82137 2458.123,465.92383 2458.123,465.92383 2586.8768,132.04883 3016.0527,109.95508 3016.0527,109.95508 2903.5554,67.745003 2788.6847,49.601785 2674.7754,49.171875 Z M 1487.8418,1021.9277 c 11.4126,0.093 23.3127,0.7567 35.7012,2.0879 0,0 -133.4795,68.1725 -195.9707,188.875 0,0 -2.8408,-36.9223 13.7304,-70.0586 0,0 -29.7841,0.8512 -66.2754,35.6387 0,0 -52.6631,-20.3315 -212.4843,59.6973 88.1125,-113.3325 218.087,-186.481 264.3008,-203.1485 -4.8089,3.8925 -34.37,29.0612 -40.4512,64.2637 0,0 66.7799,-78.448 201.4492,-77.3555 z"
       id="path5059"
       inkscape:connector-curvature="0"
       sodipodi:nodetypes="scscccccccccccccccccccccccccccccccccccccscccccccccccccsccccccccc" /></g><g
     inkscape:groupmode="layer"
     id="layer2"
     inkscape:label="Light Color Features"
     style="display:inline"><g
       id="g5073"
       transform="matrix(1.25,0,0,-1.25,1972.7668,520.83625)"
       style="fill:#61c6c3;fill-opacity:1;stroke:none"><path
         d="M 0,0 C 141.708,248.39 502.378,317.087 633.253,334.161 399.714,355.435 167.841,270.148 -0.563,183.661 -109.747,127.591 -203.892,65.492 -273.565,14.948 c -72.133,-59.288 -110.68,-102.804 -110.68,-102.804 -200.954,-43.425 -302.952,-110.074 -518.047,-257.509 -190.399,-130.505 -443.26,-192.168 -498.828,-204.607 60.361,-2.217 196.331,4.163 354.423,85.445 214.084,110.074 426.592,296.032 687.318,341.832 0,0 340.342,344.164 736.953,421.151 0.006,0 0.006,0 0.012,0.005 13.724,3.727 27.714,7.253 42.002,10.549 0,0 -8.762,-2.302 -24.024,-7.064 C 309.362,275.086 14.178,169.435 -102.5,-48.472 c 0,0 345.443,68.067 590.652,-13.118 C 627.018,-96.151 789.861,-162.43 924.129,-288.585 506.51,114.013 0,0 0,0"
         style="fill:#61c6c3;fill-opacity:1;fill-rule:nonzero;stroke:none"
         id="path5075"
         inkscape:connector-curvature="0" /></g><g
       id="g5077"
       transform="matrix(1.25,0,0,-1.25,2195.5625,658.42612)"><path
         d="m 0,0 c 0,0 50.247,-78.937 24.66,-175.445 3.872,-32.61 0.079,-56.313 0.079,-56.313 28.629,55.519 27.272,115.643 20.891,156.917 C 38.081,-49.545 24.484,-20.522 0,0"
         style="fill:#61c6c3;fill-opacity:1;fill-rule:nonzero;stroke:none"
         id="path5079"
         inkscape:connector-curvature="0" /></g><g
       id="g5081"
       transform="matrix(1.25,0,0,-1.25,2134.3406,725.32838)"><path
         d="m 0,0 c 0,0 62.105,-74.726 -8.077,-221.657 0,0 -114.352,-48.994 -248.686,7.664 -5.696,-12.53 10.361,-21.806 10.361,-21.806 144.41,-62.608 257.508,2.526 257.508,2.526 38.633,66.729 38.087,128.082 29.235,170.738 C 32.682,-41.88 20.219,-19.698 0,0"
         style="fill:#61c6c3;fill-opacity:1;fill-rule:nonzero;stroke:none"
         id="path5083"
         inkscape:connector-curvature="0" /></g><g
       id="g5085"
       transform="matrix(1.25,0,0,-1.25,2256.1526,628.13137)"><path
         d="m 0,0 c 0,0 51.314,-59.706 43.304,-146.744 5.041,-16.195 6.683,-26.95 6.683,-26.95 27.72,49.175 11.658,103.294 -2.799,134.898 C 38.22,-28.974 23.309,-15.099 0,0"
         style="fill:#61c6c3;fill-opacity:1;fill-rule:nonzero;stroke:none"
         id="path5087"
         inkscape:connector-curvature="0" /></g><g
       id="g5093"
       transform="matrix(1.25,0,0,-1.25,2632.3425,1277.8989)"
       style="fill:#61c6c3;fill-opacity:1;stroke:none"><path
         d="m 0,0 c 21.703,-2.369 50.078,-7.028 72.938,-16.159 0,0 192.647,119.878 376.418,149.961 145.259,23.781 261.659,21.182 366.213,-8.81 25.806,-7.404 50.908,-16.499 75.52,-27.278 -33.658,18.583 -89.892,42.765 -170.622,55.791 C 569.682,177.845 333.574,163.182 0,0"
         style="fill:#61c6c3;fill-opacity:1;fill-rule:nonzero;stroke:none"
         id="path5095"
         inkscape:connector-curvature="0" /></g><g
       id="g5097"
       transform="matrix(1.25,0,0,-1.25,2455.194,1542.6753)"
       style="fill:#61c6c3;fill-opacity:1;stroke:none"><path
         d="m 0,0 c -26.641,-32.598 -63.608,-88.674 -81.324,-164.472 -5.072,-21.704 -8.58,-44.983 -9.78,-69.825 -0.236,-4.823 -0.412,-9.682 -0.472,-14.62 5.932,42.656 17.826,79.622 32.428,111.274 C -12.803,-37.233 61.166,9.095 61.166,9.095 48.29,21.213 30.616,32.828 30.616,32.828 30.616,32.828 17.553,21.479 0,0"
         style="fill:#61c6c3;fill-opacity:1;fill-rule:nonzero;stroke:none"
         id="path5099"
         inkscape:connector-curvature="0" /></g><g
       id="g5105"
       transform="matrix(1.25,0,0,-1.25,2697.6996,2004.5443)"
       style="fill:#61c6c3;fill-opacity:1;stroke:none"><path
         d="m 0,0 -0.006,-0.006 c -17.08,-15.82 -84.857,-70.551 -273.202,-146.01 -224.941,-90.128 -190.859,-76.496 -272.656,-136.329 0,0 -95.429,4.545 -151.475,-75.737 0,0 72.326,55.288 157.91,46.957 0,0 46.909,44.11 107.172,78.01 78.767,44.304 286.289,112.092 396.866,189.345 C 49.854,15.784 80.979,82.1 90.11,106.596 82.912,88.51 61.099,47.369 0,0"
         style="fill:#61c6c3;fill-opacity:1;fill-rule:nonzero;stroke:none"
         id="path5107"
         inkscape:connector-curvature="0" /></g><g
       id="g5109"
       transform="matrix(1.25,0,0,-1.25,1993.1214,2329.077)"
       style="fill:#61c6c3;fill-opacity:1;stroke:none"><path
         d="m 0,0 c 0,0 59.978,57.755 200.633,102.428 3.399,1.084 6.804,2.163 10.3,3.223 0,0 -8.398,-1.036 -22.679,-3.89 C 149.719,94.072 67.958,73.108 -10.222,23.103 c 0,0 -95.684,-2.527 -163.218,-59.457 0,0 -200.287,78.561 -446.362,25.866 -33.567,-7.186 -67.982,-16.796 -102.864,-29.399 0,0 77.495,22.831 182.54,29.035 109.36,6.459 248.584,-5.101 361.385,-79.276 0,0 79.524,96.563 178.741,90.128"
         style="fill:#61c6c3;fill-opacity:1;fill-rule:nonzero;stroke:none"
         id="path5111"
         inkscape:connector-curvature="0" /></g><path
       transform="matrix(1.25,0,0,-1.25,2720.6513,1758.2015)"
       d="m 0,0 c -2.496,11.573 -6.035,18.432 -6.035,18.432 -97.956,-77.762 -152.487,-233.273 -152.487,-233.273 0,0 4.78,3.066 12.627,8.477 C -130.881,-174.136 -84.693,-84.729 0,0"
       style="display:inline;fill:#61c6c3;fill-opacity:1;fill-rule:nonzero;stroke:none"
       id="path5123"
       inkscape:connector-curvature="0" /><path
       transform="matrix(1.25,0,0,-1.25,3053.573,2012.83)"
       d="m 0,0 c -0.733,-5.877 -1.981,-13.639 -4.108,-22.782 -4.635,-19.904 -13.439,-46.242 -30.15,-73.405 -9.537,-15.499 -21.649,-31.259 -37.033,-46.23 0,0 54.398,38.414 90.177,134.534 4.944,13.288 9.543,27.654 13.584,43.195 0,0 -8.925,-10.494 -22.479,-24.89 C 6.877,7.119 3.551,3.641 0,0"
       style="display:inline;fill:#61c6c3;fill-opacity:1;fill-rule:nonzero;stroke:none"
       id="path5127"
       inkscape:connector-curvature="0" /></g><g
     inkscape:groupmode="layer"
     id="layer1"
     inkscape:label="Dark Color Features"
     style="display:inline"><path
       transform="matrix(1.25,0,0,-1.25,3746.206,1155.7541)"
       d="M 0,0 C -24.612,10.773 -49.714,19.874 -75.52,27.278 -180.074,57.27 -296.474,59.869 -441.733,36.088 -625.51,6.005 -818.15,-113.873 -818.15,-113.873 c -22.861,9.131 -51.235,13.79 -72.939,16.159 -0.176,-0.091 -0.351,-0.17 -0.527,-0.254 0,0 -12.676,1.587 -32.943,2.653 -48.206,2.527 -139.661,2.073 -207.903,-29.919 0,0 143.399,-17.165 228.225,-87.856 0,0 -175.645,88.971 -328.684,24.903 -9.81,-4.108 -19.528,-8.828 -29.096,-14.257 -4.126,-2.339 -8.222,-4.823 -12.287,-7.422 -5.974,-3.824 -11.888,-7.895 -17.711,-12.312 0,0 168.605,18.255 281.842,-49.618 2.678,-1.605 5.362,-3.211 7.98,-4.914 0,0 17.674,-11.615 30.549,-23.733 0,0 -73.968,-46.327 -120.314,-146.737 -14.602,-31.653 -26.496,-68.619 -32.428,-111.274 0,0 4.375,20.291 19.286,48.944 26.557,51.017 86.674,128.646 216.01,166.151 0,0 187.83,-108.051 54.532,-267.609 -83.094,-99.453 -194.416,-144.362 -266.507,-164.084 -7.767,-5.775 -14.232,-10.271 -19.152,-13.579 53.295,6.986 147.246,32.21 286.162,114.298 0,0 -1.436,-1.63 -4.757,-4.702 l 0.006,0 c 61.099,47.375 82.912,88.51 90.11,106.602 2.333,6.241 3.254,9.81 3.254,9.81 0,0 -0.745,-3.52 -3.254,-9.81 -9.131,-24.502 -40.256,-90.818 -125.501,-150.372 -110.577,-77.253 -318.098,-145.041 -396.866,-189.345 -60.263,-33.9 -107.166,-78.01 -107.166,-78.01 -85.583,8.331 -157.916,-46.957 -157.916,-46.957 0,0 220.761,18.358 272.444,-153.56 0.254,-0.8 0.497,-1.6 0.739,-2.406 0.297,-1.042 0.576,-2.102 0.867,-3.157 0.46,-1.684 0.921,-3.368 1.327,-5.071 2.29,-9.21 4.12,-18.922 5.429,-29.18 28.986,40.25 46.624,85.165 52.598,134.486 1.727,14.233 2.278,27.738 2.121,40.305 -1.939,25.247 -7.701,52.749 -18.941,82.202 0,0 -52.259,-13.632 -84.826,-80.282 0,0 5.192,63.032 80.979,109.014 11.342,6.883 24.218,13.385 38.941,19.238 l 76.744,24.739 23.23,-9.592 9.591,17.165 c 0,0 47.121,13.906 111.638,39.814 89.831,36.07 213.393,95.43 290.53,173.01 132.541,133.298 260.538,376.417 64.377,479.42 0,0 61.603,-13.13 104.519,-52.004 0,0 142.605,183.085 389.28,222.887 47.272,7.628 98.35,10.028 153.002,4.829 0,0 -12.572,10.973 -38.444,25.26 m -518.229,-194.155 c 13.258,-11.737 21.207,-32.186 21.207,-32.186 -22.721,26.508 -90.51,49.23 -90.51,49.23 252.086,154.626 482.074,163.466 482.074,163.466 -265.082,-32.319 -412.771,-180.51 -412.771,-180.51"
       style="fill:#288b83;fill-opacity:1;fill-rule:nonzero;stroke:none"
       id="path5043"
       inkscape:connector-curvature="0" /><path
       transform="matrix(1.25,0,0,-1.25,1833.9166,974.62937)"
       d="m 0,0 c -9.507,-5.09 -14.372,-10.034 -16.426,-14.554 134.341,-56.658 248.687,-7.665 248.687,-7.665 70.181,146.932 8.076,221.658 8.076,221.658 20.219,-19.698 32.683,-41.88 40.341,-62.535 -7.695,37.069 -21.655,60.014 -21.655,60.014 37.403,-37.669 50.739,-83.832 54.956,-119.399 25.587,96.508 -24.661,175.445 -24.661,175.445 24.485,-20.522 38.075,-49.544 45.631,-74.847 -4.756,30.798 -12.306,51.114 -12.306,51.114 33.337,-32.404 50.32,-72.672 58.445,-98.774 8.011,87.038 -43.297,146.743 -43.297,146.743 23.309,-15.099 38.22,-28.98 47.187,-38.802 -7.664,16.754 -14.875,27.187 -14.875,27.187 77.756,-63.62 82.809,-156.02 82.809,-156.02 17.165,26.763 10.094,54.029 10.094,54.029 259.024,43.928 693.256,-224.693 693.256,-224.693 -19.97,25.902 -40.323,50.296 -60.972,73.308 0,0.006 -0.01,0.006 -0.012,0.012 -2.333,2.545 -4.677,5.108 -7.095,7.749 -0.018,0.019 -0.037,0.037 -0.055,0.061 -17.45,19.104 -35.099,37.245 -52.919,54.422 -134.268,126.149 -297.111,192.435 -435.977,226.996 1.042,-0.346 2.096,-0.673 3.132,-1.024 0,0 -340.311,85.838 -688.705,-53.52 0,0 157.444,297.062 565.258,411.85 6.302,1.861 9.737,2.733 9.737,2.733 -396.611,-76.98 -736.947,-421.151 -736.947,-421.151 -260.732,-45.8 -473.24,-231.758 -687.324,-341.826 -158.092,-81.288 -294.062,-87.668 -354.422,-85.45 -0.255,-0.055 -0.534,-0.115 -0.782,-0.17 -6.725,-1.502 -10.355,-2.236 -10.355,-2.236 0.14,-0.072 0.279,-0.133 0.424,-0.206 111.759,-54.325 151.761,-56.839 314.137,-48.775 198.317,9.858 313.051,167.635 313.051,167.635 -92.4,-178.996 -270.129,-227.213 -270.129,-227.213 103.003,13.633 221.154,37.869 327.187,139.357 106.033,101.489 236.048,171.671 236.048,171.671 -72.709,0 -159.807,-45.946 -159.807,-45.946 326.43,205.504 651.848,47.969 651.848,47.969 C 111.583,15.147 35.845,19.183 0,0 M 1116.878,-26.763 C 671.037,246.905 458.462,184.8 458.462,184.8 c -4.544,21.207 -15.65,38.372 -15.65,38.372 325.17,16.662 674.066,-249.935 674.066,-249.935"
       style="fill:#288b83;fill-opacity:1;fill-rule:nonzero;stroke:none"
       id="path5047"
       inkscape:connector-curvature="0" /><g
       id="g5037"
       transform="matrix(1.25,0,0,-1.25,2720.6513,1758.2015)"
       style="fill:#288b83;fill-opacity:1;stroke:none"><path
         d="m 0,0 c -84.693,-84.729 -130.881,-174.136 -145.895,-206.364 26.878,18.534 90.091,64.795 123.701,111.692 C 5.568,-55.931 4.429,-20.522 0,0"
         style="fill:#288b83;fill-opacity:1;fill-rule:nonzero;stroke:none"
         id="path5039"
         inkscape:connector-curvature="0" /></g><g
       id="g5033"
       transform="matrix(1.25,0,0,-1.25,2998.9395,2063.6963)"
       style="fill:#288b83;fill-opacity:1;stroke:none"><path
         d="m 0,0 c -2.842,-2.339 -5.683,-4.623 -8.525,-6.804 0,0 1.381,-37.481 -13.609,-80.664 -1.636,-4.708 -3.405,-9.458 -5.453,-14.257 15.39,14.972 27.496,30.731 37.033,46.23 16.717,27.163 25.514,53.502 30.15,73.405 2.133,9.144 3.381,16.905 4.108,22.782 C 30.889,27.562 15.535,12.785 0,0"
         style="fill:#288b83;fill-opacity:1;fill-rule:nonzero;stroke:none"
         id="path5035"
         inkscape:connector-curvature="0" /></g></g></svg>