<?xml version="1.0" encoding="UTF-8" standalone="no"?>
<!-- Created with Inkscape (http://www.inkscape.org/) -->

<svg
   xmlns:dc="http://purl.org/dc/elements/1.1/"
   xmlns:cc="http://creativecommons.org/ns#"
   xmlns:rdf="http://www.w3.org/1999/02/22-rdf-syntax-ns#"
   xmlns:svg="http://www.w3.org/2000/svg"
   xmlns="http://www.w3.org/2000/svg"
   xmlns:sodipodi="http://sodipodi.sourceforge.net/DTD/sodipodi-0.dtd"
   xmlns:inkscape="http://www.inkscape.org/namespaces/inkscape"
   id="svg5015"
   version="1.1"
   inkscape:version="0.92.2 (5c3e80d, 2017-08-06)"
   xml:space="preserve"
   width="4045"
   height="4045"
   viewBox="0 0 4045 4045"
   sodipodi:docname="Mechalodons-Shark Logo V2.svg"
   inkscape:export-filename="C:\Users\KooTG\Desktop\shark-1024.png"
   inkscape:export-xdpi="5.6959209"
   inkscape:export-ydpi="5.6959209"><metadata
     id="metadata5021"><rdf:RDF><cc:Work
         rdf:about=""><dc:format>image/svg+xml</dc:format><dc:type
           rdf:resource="http://purl.org/dc/dcmitype/StillImage" /><dc:title></dc:title></cc:Work></rdf:RDF></metadata><defs
     id="defs5019"><clipPath
       clipPathUnits="userSpaceOnUse"
       id="clipPath5029"><path
         d="M 0,2460.951 H 3236.526 V 0 H 0 Z"
         id="path5031"
         inkscape:connector-curvature="0" /></clipPath></defs><sodipodi:namedview
     pagecolor="#a8a4a4"
     bordercolor="#666666"
     borderopacity="1"
     objecttolerance="10"
     gridtolerance="10"
     guidetolerance="10"
     inkscape:pageopacity="0"
     inkscape:pageshadow="2"
     inkscape:window-width="1920"
     inkscape:window-height="1057"
     id="namedview5017"
     showgrid="false"
     inkscape:zoom="0.14709766"
     inkscape:cx="1829.8865"
     inkscape:cy="1821.3034"
     inkscape:window-x="1912"
     inkscape:window-y="-8"
     inkscape:window-maximized="1"
     inkscape:current-layer="layer7"
     showguides="true"
     inkscape:guide-bbox="true"><sodipodi:guide
       position="441.88329,2022.5"
       orientation="0,1"
       id="guide4535"
       inkscape:locked="false"
       inkscape:label=""
       inkscape:color="rgb(0,0,255)" /><sodipodi:guide
       position="2022.5,2780.4657"
       orientation="1,0"
       id="guide4537"
       inkscape:locked="false"
       inkscape:label=""
       inkscape:color="rgb(0,0,255)" /></sodipodi:namedview><g
     inkscape:groupmode="layer"
     id="layer3"
     inkscape:label="Black Silhouette"
     style="display:inline"
     transform="translate(0,968.8125)"><g
       id="g5053"
       transform="matrix(1.25,0,0,-1.25,3950.4546,716.06934)"
       style="fill:#000000;fill-opacity:1"><path
         d="m 0,0 c -152.372,179.008 -406.954,192.998 -482.722,192.998 h -0.091 c -229.577,297.868 -531.25,398.69 -649.916,428.216 110.862,199.578 388.893,217.07 391.819,217.228 l 188.981,9.725 -177.172,66.479 c -141.436,53.072 -298.649,64.868 -467.302,35.07 -133.165,-23.533 -273.704,-72.963 -417.709,-146.919 -217.61,-111.759 -374.642,-243.713 -410.833,-275.256 -157.928,-38.057 -237.75,-78.428 -508.679,-254.455 -257.497,-167.301 -543.895,-214.835 -546.755,-215.295 l -75.398,-12.045 53.556,-54.453 c 367.31,-373.49 727.071,-389.922 742.206,-390.437 l 28.744,-0.982 c 39.523,-136.928 157.541,-146.356 217.252,-131.723 209.176,27.011 523.779,232.994 569.161,263.313 123.004,36.463 217.253,20.91 266.646,6.386 -98.671,-190.532 -63.505,-337.015 -61.857,-343.571 l 17.269,-68.406 -65.492,22.364 -20.468,-67.05 -420.545,-22.733 c -542.919,-24.963 -698.86,-296.571 -705.228,-308.12 l -80.858,-146.543 137.722,95.114 c 193.895,133.911 357.058,114.74 358.501,114.57 l 2.441,-0.339 2.466,-0.03 c 241.98,-2.896 289.688,-75.968 294.687,-85.093 l 7.725,-41.862 44.358,17.656 c 1.345,0.539 135.583,52.574 234.624,-28.696 23.855,-19.57 36.506,-41.165 38.699,-66.019 4.72,-53.622 -39.547,-106.009 -39.899,-106.414 l -172.106,-197.888 222.639,138.612 c 147.301,91.703 190.156,209.551 200.184,292.263 5.853,48.339 1.375,90.431 -4.163,119.424 l 19.607,5.41 43.328,-26.302 41.862,52.326 c 135.759,37.53 260.278,93.933 334.931,131.172 -8.586,-24.957 -18.286,-42.789 -18.444,-43.068 l -72.29,-130.129 127.185,77.349 c 159.395,96.938 192.405,237.405 199.027,282.635 156.796,184.056 184.552,393.201 189.454,459.614 184.188,120.605 381.07,72.739 383.003,72.248 L 80.749,-94.86 Z m -1298.576,-664.166 29.907,46.909 c 40.711,63.862 82.996,106.051 117.703,133.323 -39.324,-86.639 -107.718,-149.059 -147.61,-180.232"
         style="fill:#000000;fill-opacity:1;fill-rule:nonzero;stroke:none"
         id="path5055"
         inkscape:connector-curvature="0"
         sodipodi:nodetypes="csccccccscscccccccccccccccscccccccccccccccccccsccccccccc" /></g></g><g
     inkscape:groupmode="layer"
     id="layer5"
     inkscape:label="White Silhouette"
     style="display:inline"
     transform="translate(0,968.8125)"><path
       d="m 3936.0427,728.34414 c -192.5487,-226.19875 -520.5988,-235.605 -598.42,-234.5375 -183.0425,-240.46 -406.5075,-376.29625 -562.9812,-448.208749 -119.2425,-54.81125 -217.1338,-81.53125 -268.1275,-93.1125 135.0487,-279.820001 512.9037,-303.171251 516.835,-303.375001 l 145.3637,-7.4825 -136.2825,-51.13875 c -173.5763,-65.1275 -366.7688,-79.5625 -574.1838,-42.92 -164.5937,29.09 -338.4649,90.26375 -516.7825,181.84624 C 1663.219,-127.69088 1465.0202,41.591641 1428.2265,73.969141 1230.4602,121.23664 1132.6527,170.39039 793.7402,390.59039 468.2427,602.07414 106.60145,661.94414 102.98895,662.52039 l -57.9775,9.3 41.16375,41.86125 c 453.90375,461.52256 896.2963,481.75996 914.905,482.39626 l 49.7825,1.6962 2.8487,10.2325 c 44.8288,160.92 182.3075,171.4175 250.7151,154.24 261.295,-33.135 660.4324,-296.7175 706.8,-327.8312 177.4312,-53.29621 311.9712,-21.0925 368.6687,-1.4012 -132.89,241.2475 -88.2113,427.4499 -86.1588,435.5762 l 17.1838,68.065 37.7337,-59.1963 c 73.935,-115.9774 152.2776,-176.6587 202.0451,-206.3099 -51.3426,170.8425 -199.0013,282.6162 -241.3538,311.8124 l -81.8575,-27.9474 -23.7363,77.7599 -539.0637,29.1375 c -668.175,30.7263 -858.06375,361.3301 -865.82,375.3788 l -62.19625,112.7362 105.935,-73.1712 c 249.19245,-172.1063 459.46375,-146.6662 461.47875,-146.385 l 3.7712,0.28 c 329.005,3.945 382.7413,111.3575 386.1338,119.0288 l 7.46,31.9312 32.6362,-12.9887 c 1.7875,-0.72 179.945,-69.7775 312.2975,38.8237 34.0138,27.9012 52.085,59.2112 55.235,95.7025 6.4988,75.1925 -53.895,146.2412 -54.4625,146.9 l -132.39,152.2262 171.2588,-106.6237 c 177.7637,-110.6762 229.41,-252.2525 241.4362,-351.545 8.3388,-68.8075 -0.6662,-126.77 -8.5737,-160.5188 l 49.525,-13.6625 46.9275,28.4763 45.7837,-57.2113 c 196.6375,-53.615 375.0688,-139.805 459.32,-183.725 -11.2325,53.675 -35.9075,98.8525 -36.2262,99.4288 l -55.6063,100.0875 97.83,-59.4925 c 200.2963,-121.8163 234.9463,-299.2863 240.665,-345.2438 204.0825,-236.7637 232.5688,-508.40501 236.5213,-576.98501 239.96,-162.3137 499.1737,-98.71 501.7562,-98.0512 l 92.7713,24.0012 z M 1030.7402,1142.7891 c 1.65,0.1213 3.2787,0.22 4.9,0.3263 l 0.3475,1.2563 z"
       style="fill:#ffffff;fill-opacity:1;fill-rule:nonzero;stroke:none;stroke-width:1.25"
       id="path5091"
       inkscape:connector-curvature="0"
       sodipodi:nodetypes="ccccccccccscccccccccccccccccccccccccccccscccccccccccccccccc" /></g><g
     inkscape:groupmode="layer"
     id="layer7"
     inkscape:label="Black Features"
     style="display:inline"
     transform="translate(0,968.8125)"><path
       style="fill:#000000;fill-opacity:1;fill-rule:nonzero;stroke:none"
       d="m 2680.5086,-441.93359 c -633.8033,-2.39206 -1237.8555,543.6133 -1237.8555,543.6133 -200.705,47.33624 -297.2721,96.56624 -632.41209,314.31249 -335.14,217.74624 -702.46875,276.44144 -702.46875,276.44144 450.64125,458.21376 894.34374,473.36326 894.34374,473.36326 -79.52374,-23.9787 -114.87303,-84.5683 -114.87303,-84.5683 114.87123,45.4425 237.31053,30.2949 237.31053,30.2949 -56.8037,-8.8387 -94.6719,-73.2168 -94.6719,-73.2168 88.3638,47.965 239.8379,18.9356 239.8379,18.9356 -102.2462,-3.7875 -119.916,-87.09971 -119.916,-87.09971 176.72,68.16381 334.5039,-5.9902 334.5039,-5.9902 -142.6362,-4.7337 -103.5019,-88.6816 -103.5019,-88.6816 95.9287,50.4937 254.9785,0 254.9785,0 -87.0988,1.265 -113.6055,-54.2813 -113.6055,-54.2813 273.92,-147.68875 542.7891,37.8692 542.7891,37.8692 -194.3963,-16.405 -287.8047,39.1328 -287.8047,39.1328 112.3412,-7.5738 82.0469,50.4941 82.0469,50.4941 -98.4588,35.3388 -204.4903,7.5742 -204.4903,7.5742 13.89,30.295 100.9883,69.42191 100.9883,69.42191 -59.3337,20.1988 -177.9844,-31.55271 -177.9844,-31.55271 20.1925,46.70001 64.377,88.35541 64.377,88.35541 -95.9363,6.3163 -167.8887,-45.4433 -167.8887,-45.4433 6.3088,61.855 55.5391,109.8203 55.5391,109.8203 -92.1438,7.5737 -172.9317,-60.5898 -172.9317,-60.5898 18.9338,66.9062 74.4727,132.541 74.4727,132.541 -102.2463,3.7862 -180.5059,-88.3555 -180.5059,-88.3555 1.2638,73.2087 39.1328,132.541 39.1328,132.541 -92.15,26.5088 -207.0214,-63.1211 -207.0214,-63.1211 49.23,176.7275 215.8535,132.541 215.8535,132.541 267.6125,-32.8175 699.3164,-325.6718 699.3164,-325.6718 254.98,-78.26001 425.3906,11.3613 425.3906,11.3613 -149.5825,248.0412 -100.3535,443.0664 -100.3535,443.0664 129.0712,-202.4625 270.7637,-244.2559 270.7637,-244.2559 -37.8688,251.8288 -280.2305,399.5176 -280.2305,399.5176 l -66.3086,-22.6387 -20.791,68.0821 -560.459,30.2949 c -658.9187,30.295 -840.68945,359.7559 -840.68945,359.7559 263.18875,-181.7713 482.82815,-151.4766 482.82815,-151.4766 373.7362,4.4837 414.664,140.1152 414.664,140.1152 0,0 195.0261,-77.6324 342.7149,43.5489 147.6887,121.18 4.4219,285.9101 4.4219,285.9101 324.4075,-201.9625 211.4296,-507.4433 211.4296,-507.4433 l 91.5215,-25.2442 35.3399,21.457 35.3476,-44.1777 c 270.1338,-71.9512 512.4942,-210.8008 512.4942,-210.8008 1.8937,82.6763 -45.4414,167.8809 -45.4414,167.8809 215.8525,-131.2763 227.2129,-331.9824 227.2129,-331.9824 232.2575,-263.8175 236.0429,-580.65821 236.0429,-580.65821 258.4563,-183.66385 539.0039,-111.0782 539.0039,-111.0782 -207.65,-243.94372 -590.125,-223.42575 -590.125,-223.42575 C 2972.557,53.715911 2463.8562,-25.181629 2463.8562,-25.181629 2592.61,-359.05663 3021.7859,-381.15038 3021.7859,-381.15038 c -112.4973,-42.21008 -227.368,-60.3533 -341.2773,-60.78321 z M 1493.575,530.82224 c 11.4126,0.093 23.3127,0.7567 35.7012,2.0879 0,0 -133.4795,68.1725 -195.9707,188.875 0,0 -2.8408,-36.9223 13.7304,-70.0586 0,0 -29.7841,0.8512 -66.2754,35.6387 0,0 -52.6631,-20.3315 -212.4843,59.69725 88.1125,-113.33245 218.087,-186.48095 264.3008,-203.14845 -4.8089,3.8925 -34.37,29.0612 -40.4512,64.2637 0,0 66.7799,-78.448 201.4492,-77.3555 z"
       id="path5059"
       inkscape:connector-curvature="0"
       sodipodi:nodetypes="scscccccccccccccccccccccccccccccccccccccscccccccccccccsccccccccc" /></g><g
     inkscape:groupmode="layer"
     id="layer2"
     inkscape:label="Light Color Features"
     style="display:inline"
     transform="translate(0,968.8125)"><g
       id="g5073"
       transform="matrix(1.25,0,0,-1.25,1978.5,29.730791)"
       style="fill:#61c6c3;fill-opacity:1;stroke:none"><path
         d="M 0,0 C 141.708,248.39 502.378,317.087 633.253,334.161 399.714,355.435 167.841,270.148 -0.563,183.661 -109.747,127.591 -203.892,65.492 -273.565,14.948 c -72.133,-59.288 -110.68,-102.804 -110.68,-102.804 -200.954,-43.425 -302.952,-110.074 -518.047,-257.509 -190.399,-130.505 -443.26,-192.168 -498.828,-204.607 60.361,-2.217 196.331,4.163 354.423,85.445 214.084,110.074 426.592,296.032 687.318,341.832 0,0 340.342,344.164 736.953,421.151 0.006,0 0.006,0 0.012,0.005 13.724,3.727 27.714,7.253 42.002,10.549 0,0 -8.762,-2.302 -24.024,-7.064 C 309.362,275.086 14.178,169.435 -102.5,-48.472 c 0,0 345.443,68.067 590.652,-13.118 C 627.018,-96.151 789.861,-162.43 924.129,-288.585 506.51,114.013 0,0 0,0"
         style="fill:#61c6c3;fill-opacity:1;fill-rule:nonzero;stroke:none"
         id="path5075"
         inkscape:connector-curvature="0" /></g><g
       id="g5077"
       transform="matrix(1.25,0,0,-1.25,2201.2957,167.32066)"><path
         d="m 0,0 c 0,0 50.247,-78.937 24.66,-175.445 3.872,-32.61 0.079,-56.313 0.079,-56.313 28.629,55.519 27.272,115.643 20.891,156.917 C 38.081,-49.545 24.484,-20.522 0,0"
         style="fill:#61c6c3;fill-opacity:1;fill-rule:nonzero;stroke:none"
         id="path5079"
         inkscape:connector-curvature="0" /></g><g
       id="g5081"
       transform="matrix(1.25,0,0,-1.25,2140.0738,234.22292)"><path
         d="m 0,0 c 0,0 62.105,-74.726 -8.077,-221.657 0,0 -114.352,-48.994 -248.686,7.664 -5.696,-12.53 10.361,-21.806 10.361,-21.806 144.41,-62.608 257.508,2.526 257.508,2.526 38.633,66.729 38.087,128.082 29.235,170.738 C 32.682,-41.88 20.219,-19.698 0,0"
         style="fill:#61c6c3;fill-opacity:1;fill-rule:nonzero;stroke:none"
         id="path5083"
         inkscape:connector-curvature="0" /></g><g
       id="g5085"
       transform="matrix(1.25,0,0,-1.25,2261.8858,137.02591)"><path
         d="m 0,0 c 0,0 51.314,-59.706 43.304,-146.744 5.041,-16.195 6.683,-26.95 6.683,-26.95 27.72,49.175 11.658,103.294 -2.799,134.898 C 38.22,-28.974 23.309,-15.099 0,0"
         style="fill:#61c6c3;fill-opacity:1;fill-rule:nonzero;stroke:none"
         id="path5087"
         inkscape:connector-curvature="0" /></g><g
       id="g5093"
       transform="matrix(1.25,0,0,-1.25,2638.0757,786.79349)"
       style="fill:#61c6c3;fill-opacity:1;stroke:none"><path
         d="m 0,0 c 21.703,-2.369 50.078,-7.028 72.938,-16.159 0,0 192.647,119.878 376.418,149.961 145.259,23.781 261.659,21.182 366.213,-8.81 25.806,-7.404 50.908,-16.499 75.52,-27.278 -33.658,18.583 -89.892,42.765 -170.622,55.791 C 569.682,177.845 333.574,163.182 0,0"
         style="fill:#61c6c3;fill-opacity:1;fill-rule:nonzero;stroke:none"
         id="path5095"
         inkscape:connector-curvature="0" /></g><g
       id="g5097"
       transform="matrix(1.25,0,0,-1.25,2460.9272,1051.5698)"
       style="fill:#61c6c3;fill-opacity:1;stroke:none"><path
         d="m 0,0 c -26.641,-32.598 -63.608,-88.674 -81.324,-164.472 -5.072,-21.704 -8.58,-44.983 -9.78,-69.825 -0.236,-4.823 -0.412,-9.682 -0.472,-14.62 5.932,42.656 17.826,79.622 32.428,111.274 C -12.803,-37.233 61.166,9.095 61.166,9.095 48.29,21.213 30.616,32.828 30.616,32.828 30.616,32.828 17.553,21.479 0,0"
         style="fill:#61c6c3;fill-opacity:1;fill-rule:nonzero;stroke:none"
         id="path5099"
         inkscape:connector-curvature="0" /></g><g
       id="g5105"
       transform="matrix(1.25,0,0,-1.25,2703.4328,1513.4389)"
       style="fill:#61c6c3;fill-opacity:1;stroke:none"><path
         d="m 0,0 -0.006,-0.006 c -17.08,-15.82 -84.857,-70.551 -273.202,-146.01 -224.941,-90.128 -190.859,-76.496 -272.656,-136.329 0,0 -95.429,4.545 -151.475,-75.737 0,0 72.326,55.288 157.91,46.957 0,0 46.909,44.11 107.172,78.01 78.767,44.304 286.289,112.092 396.866,189.345 C 49.854,15.784 80.979,82.1 90.11,106.596 82.912,88.51 61.099,47.369 0,0"
         style="fill:#61c6c3;fill-opacity:1;fill-rule:nonzero;stroke:none"
         id="path5107"
         inkscape:connector-curvature="0" /></g><g
       id="g5109"
       transform="matrix(1.25,0,0,-1.25,1998.8546,1837.9716)"
       style="fill:#61c6c3;fill-opacity:1;stroke:none"><path
         d="m 0,0 c 0,0 59.978,57.755 200.633,102.428 3.399,1.084 6.804,2.163 10.3,3.223 0,0 -8.398,-1.036 -22.679,-3.89 C 149.719,94.072 67.958,73.108 -10.222,23.103 c 0,0 -95.684,-2.527 -163.218,-59.457 0,0 -200.287,78.561 -446.362,25.866 -33.567,-7.186 -67.982,-16.796 -102.864,-29.399 0,0 77.495,22.831 182.54,29.035 109.36,6.459 248.584,-5.101 361.385,-79.276 0,0 79.524,96.563 178.741,90.128"
         style="fill:#61c6c3;fill-opacity:1;fill-rule:nonzero;stroke:none"
         id="path5111"
         inkscape:connector-curvature="0" /></g><path
       d="m 2726.3845,1267.0961 c -3.12,-14.4663 -7.5437,-23.04 -7.5437,-23.04 -122.445,97.2025 -190.6088,291.5912 -190.6088,291.5912 0,0 5.975,-3.8325 15.7838,-10.5962 18.7675,-40.285 76.5025,-152.0438 182.3687,-257.955"
       style="display:inline;fill:#61c6c3;fill-opacity:1;fill-rule:nonzero;stroke:none;stroke-width:1.25"
       id="path5123"
       inkscape:connector-curvature="0" /><path
       d="m 3059.3062,1521.7245 c -0.9163,7.3463 -2.4763,17.0488 -5.135,28.4775 -5.7937,24.8801 -16.7988,57.8025 -37.6875,91.7563 -11.9212,19.3738 -27.0612,39.0737 -46.2912,57.7875 0,0 67.9975,-48.0175 112.7212,-168.1675 6.18,-16.61 11.9288,-34.5675 16.98,-53.9937 0,0 -11.1562,13.1174 -28.0987,31.1125 -3.8925,4.1287 -8.0501,8.4762 -12.4888,13.0274"
       style="display:inline;fill:#61c6c3;fill-opacity:1;fill-rule:nonzero;stroke:none;stroke-width:1.25"
       id="path5127"
       inkscape:connector-curvature="0" /></g><g
     inkscape:groupmode="layer"
     id="layer1"
     inkscape:label="Dark Color Features"
     style="display:inline"
     transform="translate(0,968.8125)"><path
       d="m 3751.9392,664.64864 c -30.765,-13.46625 -62.1425,-24.8425 -94.4,-34.0975 -130.6925,-37.49 -276.1925,-40.73875 -457.7663,-11.0125 -229.7212,37.60375 -470.5212,187.45125 -470.5212,187.45125 -28.5763,-11.4137 -64.0437,-17.2375 -91.1738,-20.1987 -0.22,0.1137 -0.4387,0.2125 -0.6587,0.3175 0,0 -15.845,-1.9838 -41.1788,-3.3163 -60.2575,-3.1587 -174.5762,-2.5912 -259.8787,37.3988 0,0 179.2488,21.4562 285.2813,109.82 0,0 -219.5563,-111.2138 -410.855,-31.1288 -12.2625,5.135 -24.4101,11.035 -36.37,17.8213 -5.1576,2.9237 -10.2776,6.0287 -15.3588,9.2775 -7.4675,4.78 -14.86,9.8687 -22.1388,15.39 0,0 210.7563,-22.8188 352.3025,62.02251 3.3475,2.0062 6.7025,4.0137 9.975,6.1425 0,0 22.0925,14.5187 38.1863,29.6662 0,0 -92.46,57.9088 -150.3925,183.4213 -18.2525,39.5662 -33.12,85.7737 -40.535,139.0925 0,0 5.4687,-25.3638 24.1075,-61.1801 33.1962,-63.7712 108.3425,-160.8074 270.0125,-207.6887 0,0 234.7875,135.0637 68.165,334.5112 -103.8675,124.3163 -243.02,180.4526 -333.1337,205.1051 -9.7088,7.2187 -17.79,12.8387 -23.94,16.9737 66.6187,-8.7325 184.0575,-40.2625 357.7024,-142.8725 0,0 -1.7949,2.0375 -5.9462,5.8775 h 0.01 c 76.3737,-59.2188 103.64,-110.6375 112.6375,-133.2525 2.9163,-7.8013 4.0675,-12.2625 4.0675,-12.2625 0,0 -0.9312,4.4 -4.0675,12.2625 -11.4137,30.6275 -50.32,113.5225 -156.8762,187.965 -138.2213,96.5662 -397.6225,181.3012 -496.0825,236.6813 -75.3288,42.375 -133.9575,97.5124 -133.9575,97.5124 -106.9788,-10.4137 -197.395,58.6963 -197.395,58.6963 0,0 275.9512,-22.9475 340.555,191.95 0.3175,1 0.6212,2 0.9237,3.0075 0.3713,1.3025 0.72,2.6275 1.0838,3.9462 0.575,2.105 1.1512,4.21 1.6587,6.3388 2.8625,11.5125 5.15,23.6525 6.7863,36.475 36.2325,-50.3125 58.28,-106.4563 65.7475,-168.1075 2.1587,-17.7913 2.8475,-34.6725 2.6512,-50.3813 -2.4237,-31.5587 -9.6262,-65.9362 -23.6762,-102.7525 0,0 -65.3238,17.04 -106.0325,100.3525 0,0 6.49,-78.79 101.2237,-136.2675 14.1775,-8.6037 30.2725,-16.7312 48.6763,-24.0475 l 95.93,-30.9237 29.0375,11.99 11.9887,-21.4563 c 0,0 58.9013,-17.3825 139.5475,-49.7675 112.2888,-45.0875 266.7413,-119.2875 363.1625,-216.2625 165.6763,-166.6225 325.6725,-470.5212 80.4713,-599.27501 0,0 77.0037,16.4125 130.6487,65.005 0,0 178.2563,-228.8562 486.6,-278.6087 59.09,-9.535 122.9375,-12.535 191.2525,-6.03625 0,0 -15.715,-13.71625 -48.055,-31.575 M 3104.153,907.34239 c 16.5725,14.6712 26.5087,40.2325 26.5087,40.2325 -28.4012,-33.135 -113.1375,-61.5375 -113.1375,-61.5375 315.1075,-193.2825 602.5925,-204.3325 602.5925,-204.3325 -331.3525,40.39875 -515.9637,225.6375 -515.9637,225.6375"
       style="fill:#288b83;fill-opacity:1;fill-rule:nonzero;stroke:none;stroke-width:1.25"
       id="path5043"
       inkscape:connector-curvature="0" /><path
       d="m 1839.6498,483.52391 c -11.8837,6.3625 -17.965,12.5425 -20.5325,18.1925 167.9262,70.8225 310.8587,9.58125 310.8587,9.58125 87.7263,-183.665 10.0951,-277.0725 10.0951,-277.0725 25.2737,24.6225 40.8537,52.35 50.4262,78.16875 -9.6187,-46.33625 -27.0687,-75.0175 -27.0687,-75.0175 46.7537,47.08625 63.4237,104.79 68.6949,149.24875 31.9838,-120.635 -30.8262,-219.30625 -30.8262,-219.30625 30.6063,25.6525 47.5938,61.93 57.0387,93.55875 -5.9449,-38.4975 -15.3824,-63.8925 -15.3824,-63.8925 41.6712,40.505 62.8999,90.84 73.0562,123.4675 10.0137,-108.7975 -54.1212,-183.42875 -54.1212,-183.42875 29.1362,18.87375 47.775,36.225 58.9837,48.5025 -9.58,-20.9425 -18.5937,-33.98375 -18.5937,-33.98375 97.1949,79.525 103.5112,195.025 103.5112,195.025 21.4562,-33.45375 12.6175,-67.53625 12.6175,-67.53625 323.78,-54.91 866.57,280.86625 866.57,280.86625 -24.9625,-32.3775 -50.4037,-62.87 -76.215,-91.635 0,-0.008 -0.012,-0.008 -0.015,-0.015 -2.9163,-3.18125 -5.8462,-6.385 -8.8687,-9.68625 -0.023,-0.0237 -0.046,-0.0462 -0.069,-0.0762 -21.8125,-23.88 -43.8737,-46.55625 -66.1488,-68.0275 -167.835,-157.68625 -371.3887,-240.54375 -544.9712,-283.745 1.3025,0.4325 2.62,0.84125 3.915,1.28 0,0 -425.3888,-107.2974995 -860.8813,66.9 0,0 196.805,-371.32751 706.5726,-514.8125 7.8774,-2.32625 12.1712,-3.41625 12.1712,-3.41625 -495.7638,96.22499 -921.1838,526.43875 -921.1838,526.43875 -325.915,57.25 -591.54995,289.6975 -859.15495,427.2825 -197.615,101.61 -367.5775,109.585 -443.0275,106.8125 -0.31875,0.0688 -0.6675,0.14375 -0.9775,0.2125 -8.40625,1.8775 -12.94375,2.795 -12.94375,2.795 0.175,0.09 0.34875,0.16625 0.53,0.2575 139.69875,67.90628 189.70125,71.04878 392.67125,60.96878 247.89625,-12.3225 391.31375,-209.54378 391.31375,-209.54378 -115.5,223.74508 -337.66125,284.01628 -337.66125,284.01628 128.75375,-17.0412 276.4425,-47.3362 408.98375,-174.19628 132.5412,-126.86125 295.06,-214.58875 295.06,-214.58875 -90.8863,0 -199.7588,57.4325 -199.7588,57.4325 408.0375,-256.88 814.81,-59.96125 814.81,-59.96125 10e-5,0 -94.6724,-5.045 -139.4787,18.93375 m 1396.0975,33.45375 c -557.3012,-342.085 -823.02,-264.45375 -823.02,-264.45375 -5.68,-26.50875 -19.5625,-47.965 -19.5625,-47.965 406.4625,-20.8275 842.5825,312.41875 842.5825,312.41875"
       style="fill:#288b83;fill-opacity:1;fill-rule:nonzero;stroke:none;stroke-width:1.25"
       id="path5047"
       inkscape:connector-curvature="0" /><g
       id="g5037"
       transform="matrix(1.25,0,0,-1.25,2726.3845,1267.0961)"
       style="fill:#288b83;fill-opacity:1;stroke:none"><path
         d="m 0,0 c -84.693,-84.729 -130.881,-174.136 -145.895,-206.364 26.878,18.534 90.091,64.795 123.701,111.692 C 5.568,-55.931 4.429,-20.522 0,0"
         style="fill:#288b83;fill-opacity:1;fill-rule:nonzero;stroke:none"
         id="path5039"
         inkscape:connector-curvature="0" /></g><g
       id="g5033"
       transform="matrix(1.25,0,0,-1.25,3004.6727,1572.5909)"
       style="fill:#288b83;fill-opacity:1;stroke:none"><path
         d="m 0,0 c -2.842,-2.339 -5.683,-4.623 -8.525,-6.804 0,0 1.381,-37.481 -13.609,-80.664 -1.636,-4.708 -3.405,-9.458 -5.453,-14.257 15.39,14.972 27.496,30.731 37.033,46.23 16.717,27.163 25.514,53.502 30.15,73.405 2.133,9.144 3.381,16.905 4.108,22.782 C 30.889,27.562 15.535,12.785 0,0"
         style="fill:#288b83;fill-opacity:1;fill-rule:nonzero;stroke:none"
         id="path5035"
         inkscape:connector-curvature="0" /></g></g></svg>