<?xml version="1.0" standalone="no"?>
<!DOCTYPE svg PUBLIC "-//W3C//DTD SVG 20010904//EN"
 "http://www.w3.org/TR/2001/REC-SVG-20010904/DTD/svg10.dtd">
<svg version="1.0" xmlns="http://www.w3.org/2000/svg"
 width="700.000000pt" height="700.000000pt" viewBox="0 0 700.000000 700.000000"
 preserveAspectRatio="xMidYMid meet">
<metadata>
Created by potrace 1.11, written by Peter Selinger 2001-2013
</metadata>
<g transform="translate(0.000000,700.000000) scale(0.100000,-0.100000)"
fill="#000000" stroke="none">
<path d="M4435 6164 c-16 -2 -66 -9 -110 -15 -428 -58 -943 -272 -1422 -590
-139 -92 -301 -212 -390 -287 -45 -38 -70 -49 -175 -79 -227 -65 -392 -146
-733 -361 -340 -214 -400 -249 -534 -317 -291 -145 -653 -266 -936 -311 -60
-9 -112 -19 -114 -21 -8 -6 194 -206 304 -302 356 -312 762 -528 1160 -620
114 -26 208 -41 262 -41 l42 0 34 -72 c58 -126 154 -198 290 -219 226 -35 715
158 1267 501 102 64 139 81 205 97 143 33 498 18 482 -20 -3 -7 -22 -50 -42
-96 -21 -46 -51 -136 -67 -200 -26 -100 -30 -135 -31 -256 -1 -116 3 -155 22
-228 12 -49 21 -91 18 -93 -2 -2 -30 5 -62 16 -32 11 -61 20 -66 20 -4 0 -16
-31 -28 -69 l-21 -69 -83 -6 c-45 -4 -253 -15 -462 -26 -465 -25 -597 -36
-745 -61 -444 -75 -774 -229 -1015 -473 -103 -104 -116 -121 -194 -266 -47
-85 -92 -166 -100 -180 -16 -25 -16 -25 6 -10 463 315 515 343 766 412 73 21
103 23 282 22 221 -1 348 -17 467 -59 131 -46 198 -105 198 -174 0 -11 4 -22
8 -25 5 -3 49 9 98 26 80 28 101 32 204 32 95 0 125 -4 170 -22 143 -56 210
-131 210 -235 0 -99 -34 -154 -244 -395 -202 -232 -212 -245 -175 -220 14 9
111 69 215 134 269 167 330 209 408 283 172 165 257 355 259 581 0 58 -3 119
-7 137 -7 29 -5 33 18 39 17 4 35 -2 63 -20 20 -14 42 -26 48 -25 5 0 29 25
53 54 40 51 48 56 130 81 135 41 310 108 479 183 84 38 153 67 153 66 0 -11
-31 -73 -91 -180 -36 -66 -74 -136 -84 -154 l-18 -35 28 18 c14 10 79 49 143
88 171 103 232 148 311 235 108 117 177 243 211 384 9 36 30 76 66 124 119
159 214 342 273 527 38 119 48 163 70 298 l17 105 80 42 c187 101 442 149 645
124 47 -6 146 -27 218 -45 73 -19 131 -31 129 -26 -11 30 -232 271 -293 320
-213 168 -492 267 -813 287 l-102 6 -57 71 c-293 363 -754 671 -1223 817 -58
17 -108 35 -112 38 -12 10 56 104 119 166 123 120 296 210 506 265 93 23 155
32 290 40 95 6 206 13 247 16 l74 6 -169 64 c-401 151 -506 175 -795 179 -113
2 -218 1 -235 -1z m525 -54 c114 -21 265 -67 430 -131 l85 -33 -168 -12 c-177
-13 -262 -28 -392 -71 -228 -74 -414 -204 -520 -363 -65 -98 -66 -93 17 -114
293 -74 689 -279 944 -487 119 -97 265 -240 343 -338 l71 -87 143 -12 c342
-30 624 -138 811 -312 56 -52 189 -200 184 -205 -2 -2 -48 8 -103 21 -287 70
-619 23 -855 -121 -56 -34 -59 -38 -65 -83 -40 -337 -177 -676 -364 -902 -27
-32 -43 -65 -55 -114 -60 -242 -201 -413 -479 -581 -43 -26 -80 -46 -81 -44
-2 2 21 47 50 99 50 89 102 216 92 226 -3 2 -70 -27 -150 -66 -163 -78 -406
-174 -546 -216 -92 -27 -112 -42 -168 -122 -1 -2 -22 7 -46 21 -39 22 -47 24
-83 13 -37 -11 -40 -14 -35 -41 3 -17 5 -93 4 -170 -1 -124 -4 -149 -28 -220
-55 -162 -178 -322 -327 -426 -51 -36 -259 -167 -339 -214 -8 -5 28 39 80 99
131 149 158 184 186 238 62 122 53 214 -28 303 -117 129 -338 169 -550 102
l-76 -24 -6 32 c-19 98 -216 186 -479 215 -405 44 -686 -28 -1031 -263 -67
-46 -127 -87 -135 -91 -15 -9 47 108 107 204 47 76 190 213 293 282 246 165
579 279 939 323 105 12 432 33 960 60 58 3 133 8 166 11 l61 5 18 65 c9 35 20
64 24 64 3 0 34 -10 68 -22 56 -19 65 -20 90 -7 42 22 198 175 253 248 47 62
120 197 135 250 7 23 6 22 -41 -9 -84 -57 -216 -199 -291 -313 -39 -59 -73
-104 -76 -100 -3 4 -12 42 -22 83 -22 95 -22 260 0 374 17 94 73 262 111 338
13 26 24 51 24 56 0 22 -119 44 -260 49 -199 7 -321 -17 -430 -84 -503 -309
-820 -458 -1089 -513 -172 -35 -264 -26 -358 37 -63 42 -107 98 -135 175 -21
58 -21 58 -62 58 -63 0 -223 26 -338 55 -319 81 -679 267 -974 502 -156 125
-388 345 -372 353 7 4 38 11 68 14 30 4 122 25 206 46 370 94 716 243 1034
445 557 353 724 439 983 507 72 19 92 30 172 93 456 363 942 629 1390 764 150
45 343 86 465 100 138 16 417 6 550 -19z m-654 -3149 c-52 -85 -154 -208 -216
-260 -48 -41 -51 -42 -37 -15 32 63 133 193 205 266 42 43 78 76 80 73 2 -2
-12 -31 -32 -64z"/>
<path d="M4490 6083 c-395 -38 -751 -152 -1161 -369 -253 -134 -558 -337 -763
-508 -43 -36 -84 -66 -91 -66 -7 0 -53 -11 -101 -25 -253 -73 -391 -144 -899
-465 -232 -146 -452 -260 -650 -338 -160 -62 -385 -132 -527 -164 l-108 -24
78 -75 c353 -344 798 -600 1217 -699 66 -15 145 -31 175 -35 l55 -7 -44 25
c-43 24 -136 106 -128 114 2 2 17 -1 33 -8 57 -21 177 -39 267 -39 87 1 90 2
60 15 -30 13 -119 93 -111 100 2 2 24 -3 48 -11 55 -19 206 -29 286 -19 l59 7
-46 12 c-60 16 -105 49 -129 97 -23 45 -22 45 51 22 41 -13 90 -18 204 -18
132 0 159 3 225 24 55 18 68 26 50 28 -117 16 -179 71 -154 137 5 13 10 13 47
-2 53 -21 211 -23 317 -3 l75 14 -50 12 c-61 14 -83 25 -115 60 -29 30 -26 33
60 66 151 57 314 73 464 45 106 -20 256 -73 328 -115 l53 -31 -105 0 c-129 0
-225 -14 -310 -42 l-65 -22 46 -7 c67 -10 89 -24 89 -58 0 -24 -6 -30 -42 -41
-60 -17 -182 -24 -250 -12 -32 5 -58 5 -58 1 0 -10 49 -45 113 -80 41 -22 48
-29 34 -35 -34 -13 -172 14 -274 53 -20 8 28 -70 70 -114 l31 -33 -37 0 c-53
0 -134 19 -196 46 -29 13 -55 24 -57 24 -12 0 37 -109 72 -157 16 -23 16 -23
-19 -23 -50 0 -147 32 -206 69 l-51 31 17 -43 c9 -23 36 -73 60 -111 l45 -69
-56 6 c-64 6 -137 43 -204 101 l-45 40 5 -49 c3 -28 16 -78 30 -113 l26 -62
-25 -6 c-59 -15 -163 13 -263 72 -30 18 -56 31 -58 29 -2 -2 6 -26 18 -54 31
-71 103 -135 176 -157 208 -60 681 120 1258 478 70 44 151 87 180 94 192 53
477 45 641 -18 17 -6 31 -12 33 -14 2 -1 -15 -38 -37 -83 -89 -176 -130 -324
-138 -492 -3 -64 -3 -133 1 -153 l7 -38 58 79 c65 87 119 145 201 214 53 46
176 119 197 119 16 0 -10 -106 -46 -191 -62 -147 -224 -346 -365 -449 l-59
-43 -54 17 c-29 9 -57 15 -62 12 -5 -4 -15 -28 -22 -56 l-13 -49 -50 -5 c-28
-3 -233 -15 -456 -26 -473 -24 -638 -36 -775 -56 -451 -65 -791 -217 -1032
-459 -57 -57 -103 -108 -103 -114 0 -6 24 4 53 23 180 115 421 200 627 220 92
9 376 -11 494 -35 162 -33 302 -104 350 -176 l18 -29 72 19 c99 26 285 19 371
-13 114 -43 191 -106 238 -194 32 -61 30 -180 -6 -259 -15 -32 -36 -72 -49
-89 l-22 -32 49 34 c28 18 76 58 109 89 192 185 268 412 222 671 -9 49 -10 77
-3 81 5 4 39 15 75 24 63 17 67 17 96 1 l31 -18 32 37 c27 31 47 41 145 72
168 52 419 154 601 243 89 44 164 80 167 80 18 0 -17 -157 -54 -243 l-17 -39
48 33 c168 116 295 301 334 488 8 39 23 70 49 101 189 228 330 574 365 902 6
54 8 58 53 87 114 72 258 129 407 162 65 14 347 19 430 7 l50 -7 -65 61 c-203
189 -469 292 -828 319 -75 6 -140 13 -143 17 -3 4 -34 43 -69 86 -312 388
-844 724 -1315 832 -44 10 -82 19 -84 21 -7 5 32 87 75 155 140 221 409 378
758 442 l118 22 -88 27 c-49 15 -121 33 -159 41 -131 27 -364 41 -485 29z
m240 -93 c-19 -5 -73 -16 -120 -25 -232 -45 -459 -121 -645 -215 -157 -79
-242 -138 -357 -249 -78 -74 -188 -215 -177 -225 2 -2 51 3 109 10 477 60
1033 -60 1455 -314 92 -56 215 -140 215 -147 0 -3 -30 15 -67 39 -93 60 -268
146 -387 190 -130 49 -389 122 -501 141 -229 39 -626 37 -914 -5 -69 -10 -127
-17 -129 -16 -6 6 85 137 137 195 175 201 539 425 851 526 149 48 -15 18 -188
-34 -192 -58 -478 -194 -694 -329 -153 -96 -402 -281 -521 -388 -143 -128
-162 -141 -214 -149 -74 -11 -265 -77 -393 -135 -152 -69 -262 -131 -580 -325
-305 -187 -418 -252 -525 -300 -181 -83 -428 -146 -568 -144 l-72 0 120 34
c220 61 466 155 649 247 101 51 220 124 426 264 365 246 575 349 873 425 80
20 81 21 190 125 250 237 754 528 1157 669 202 70 417 119 595 135 114 10 320
10 275 0z m-742 -965 c33 -28 52 -79 59 -155 6 -74 -13 -170 -28 -135 -4 11
-8 45 -8 75 -1 73 -24 160 -58 218 -29 49 -23 49 35 -3z m-92 -129 c20 -60 14
-238 -9 -301 -15 -38 -15 -32 -14 125 1 147 -1 171 -21 225 l-22 60 25 -30
c14 -16 32 -52 41 -79z m-124 -81 c18 -33 22 -57 22 -135 1 -94 -6 -127 -46
-221 -19 -45 -22 -48 -96 -72 -138 -45 -272 -45 -420 0 -48 15 -92 46 -81 58
3 2 33 -5 68 -15 128 -40 305 -44 422 -9 37 12 45 19 66 67 51 117 66 246 38
338 -8 27 -15 51 -15 54 0 7 18 -20 42 -65z m-1205 -465 c-79 -53 -204 -177
-234 -232 -16 -31 -18 -32 -21 -10 -2 13 1 36 7 53 8 25 7 29 -7 29 -10 0 -34
-12 -55 -26 -27 -18 -55 -27 -95 -29 -58 -4 -188 -43 -254 -76 -21 -11 -40
-19 -44 -19 -3 0 13 22 36 50 70 84 229 204 352 266 53 26 53 26 32 3 -22 -24
-44 -62 -44 -75 0 -3 15 5 33 18 44 34 129 76 174 87 21 5 73 9 116 10 l79 1
-75 -50z m3493 -50 c84 -11 223 -40 217 -46 -2 -2 -44 4 -93 13 -122 22 -389
22 -553 -1 -255 -35 -464 -106 -749 -251 l-163 -84 -70 18 -70 18 138 61 c318
140 618 231 868 261 50 6 101 13 115 15 54 7 289 5 360 -4z m257 -56 c-3 -3
-12 -4 -19 -1 -8 3 -5 6 6 6 11 1 17 -2 13 -5z m-1958 -698 l23 -25 -38 -33
c-121 -106 -190 -208 -246 -363 -27 -76 -28 -78 -22 -30 10 73 67 227 113 304
39 66 125 171 140 171 4 0 18 -11 30 -24z m351 -402 c0 -9 -27 -46 -59 -82
-69 -78 -178 -237 -221 -321 -25 -51 -50 -84 -50 -67 0 19 99 212 145 283 54
83 159 203 177 203 4 0 8 -7 8 -16z m71 -363 c-45 -56 -145 -146 -204 -184
-127 -80 -209 -120 -572 -276 -229 -99 -325 -151 -428 -233 -68 -55 -75 -58
-128 -58 -63 0 -166 -29 -218 -60 -49 -31 -49 -18 1 23 63 51 123 78 203 92
58 10 83 20 126 52 86 65 148 95 424 208 420 172 604 272 750 409 39 36 72 65
73 66 2 0 -10 -17 -27 -39z m559 -86 c-23 -68 -82 -180 -115 -220 -20 -25 -18
-18 10 35 19 37 41 92 50 125 9 34 26 70 42 87 15 15 28 28 29 28 2 0 -6 -25
-16 -55z m-1606 -388 c-55 -24 -141 -70 -190 -103 -76 -50 -98 -60 -150 -65
-82 -9 -180 -59 -259 -131 l-63 -58 -49 28 c-102 60 -260 111 -411 133 -99 14
-427 7 -515 -11 -33 -6 -61 -9 -63 -7 -11 10 213 48 334 57 213 15 497 -15
656 -70 l57 -19 53 34 c62 42 137 69 231 86 46 8 103 28 165 60 92 46 259 109
290 109 8 0 -30 -20 -86 -43z"/>
</g>
</svg>
